<?xml version="1.0" encoding="utf-8"?>
<!-- Uploaded to: SVG Repo, www.svgrepo.com, Generator: SVG Repo Mixer Tools -->
<svg width="800px" height="800px" viewBox="0 0 1024 1024" class="icon"  version="1.1" xmlns="http://www.w3.org/2000/svg"><path d="M306.688 701.952c48.128 57.344 109.056 125.44 107.52 204.8-112.64 12.288-233.472-28.672-301.056-122.368-36.352-50.176-49.152-107.008-51.712-167.936-2.56-67.584-1.536-134.656 1.536-202.24 132.096 15.872 253.44 92.16 324.608 204.8 0 25.6 0 51.2 1.536 76.288 2.56 36.352 7.68 72.192 18.432 106.496-20.48-37.888-49.152-72.704-75.776-103.936-54.272-65.536-110.08-130.048-181.248-178.176-12.288-8.192-23.552 11.264-11.264 19.456 66.048 44.032 117.248 102.912 167.424 162.816zM911.872 68.096c31.744 149.504 50.688 304.128 41.472 457.216-4.096 70.144-32.256 141.824-80.384 193.536-45.568 49.152-99.328 91.136-160.768 118.784-37.376 16.896-76.288 26.624-117.248 32.768-32.768 5.12-64 12.8-95.744 22.528-9.728-60.928 8.704-121.344 30.72-177.664 11.776-29.184 23.552-56.832 29.184-88.064 1.536-7.68 2.56-15.872 4.096-23.552 75.264-28.672 146.432-91.136 230.912-79.36 14.336 2.048 20.48-19.968 6.144-22.016-87.552-12.288-155.648 43.52-231.936 74.752 2.56-10.752 5.632-22.016 9.216-32.768 37.888-111.616 125.952-195.584 215.552-267.776 11.264-9.216-4.608-25.088-15.872-15.872-92.672 75.264-181.76 162.304-221.184 277.504-5.632 16.384-9.216 33.28-12.288 50.176-2.56 3.072-3.072 7.168-2.048 10.752-1.536 10.24-3.584 19.968-5.632 30.208-6.144 31.744-20.48 60.928-32.256 91.136-20.48 53.248-34.304 108.544-28.16 165.376-40.96-51.712-57.856-117.248-62.976-182.784-2.048-28.672-2.56-57.344-2.048-85.504 0.512-1.536 0.512-2.56 0-4.096 0-8.704 0-16.896 0.512-25.6 0.512-38.4 1.536-76.8 12.288-113.664 19.456-66.048 62.976-123.392 111.104-172.032 48.128-49.152 102.912-92.16 163.328-125.44 35.84-19.456 74.24-34.304 111.104-52.736 34.816-16.896 69.12-36.352 102.912-55.808z" fill="#B5D577" /><path d="M973.312 330.752c6.144 79.872 12.8 167.424-4.096 246.272-13.824 66.56-48.128 125.952-95.232 174.08-48.64 48.64-105.472 88.576-169.472 114.688-34.816 13.824-70.144 22.016-107.52 27.648-38.4 6.144-75.264 15.872-112.128 28.672-4.608 1.536-8.704 0-11.264-3.072-17.408-18.432-31.232-38.4-42.496-59.904 5.12 18.944 7.168 38.912 5.12 59.392-0.512 8.192-8.192 11.776-13.824 10.752-0.512 0-1.536 0.512-2.56 0.512-118.272 14.848-245.248-28.16-318.976-123.904-36.864-47.616-55.808-103.424-60.416-163.328-6.144-76.288-3.584-154.112 0.512-230.4 0-1.024 0.512-2.048 0.512-3.072-5.632-6.656-3.072-19.456 8.192-18.432C184.32 402.432 308.736 472.576 389.12 580.608v-7.68c1.024-38.4 3.584-76.8 15.872-113.664 22.016-65.536 65.536-122.368 113.664-171.52 51.2-52.224 110.08-98.304 174.592-132.608 35.328-18.432 72.192-33.28 108.032-51.2 37.888-18.944 74.752-40.448 111.616-61.44 2.56-1.536 5.12-2.048 7.68-1.536 4.608 0 9.216 2.048 10.24 8.192 20.48 92.16 35.328 186.368 42.496 281.6z m-19.968 195.072c9.216-153.088-9.728-307.712-41.472-457.216-33.792 19.456-68.096 38.912-103.424 56.32-36.864 18.432-74.752 33.28-111.104 52.736-60.416 32.768-115.2 75.776-163.328 125.44-47.616 48.64-91.648 105.472-111.104 172.032-10.752 36.864-11.776 75.264-12.288 113.664 0 8.192 0 16.896-0.512 25.6 0.512 1.536 0.512 3.072 0 4.096 0 28.672 0 57.344 2.048 85.504 5.12 65.536 22.016 131.072 62.976 182.784-6.144-56.832 7.68-112.128 28.16-165.376 11.776-30.208 26.112-59.392 32.256-91.136 2.048-10.24 3.584-20.48 5.632-30.208-1.024-3.584-0.512-7.68 2.048-10.752 3.072-16.896 6.656-33.28 12.288-50.176 39.424-115.712 128.512-202.752 221.184-277.504 11.264-9.216 27.136 6.656 15.872 15.872-89.088 72.192-177.664 156.16-215.552 267.776-3.584 10.752-6.656 21.504-9.216 32.768 76.288-31.744 144.384-87.04 231.936-74.752 14.336 2.048 8.192 24.064-6.144 22.016-84.48-11.776-155.648 50.688-230.912 79.36-1.536 7.68-2.56 15.872-4.096 23.552-5.632 31.232-17.408 58.88-29.184 88.064-22.528 56.32-40.96 116.224-30.72 177.664 31.232-9.728 62.976-17.408 95.744-22.528 40.448-6.144 79.872-15.872 117.248-32.768 60.928-27.648 115.2-69.632 160.768-118.784 48.64-52.224 76.8-124.416 80.896-194.048zM414.208 906.752c1.536-79.36-59.392-147.456-107.52-204.8-50.176-59.904-101.376-118.784-166.4-162.304-11.776-8.192-0.512-27.648 11.264-19.456 71.168 47.616 126.976 112.64 181.248 178.176 26.112 31.232 54.784 66.048 75.776 103.936-10.24-34.304-15.872-70.656-18.432-106.496-1.536-25.6-2.048-51.2-1.536-76.288-71.68-112.64-192.512-188.928-324.608-204.8-3.584 67.072-4.608 134.656-1.536 202.24 2.56 60.928 15.36 117.76 51.712 167.936 66.56 93.184 187.392 134.144 300.032 121.856z" fill="#72AA29" /></svg>