<svg xmlns="http://www.w3.org/2000/svg" xmlns:xlink="http://www.w3.org/1999/xlink" version="1.1" width="28" height="28" viewBox="0 0 256 256" xml:space="preserve">

<defs>
</defs>
<g style="stroke: none; stroke-width: 0; stroke-dasharray: none; stroke-linecap: butt; stroke-linejoin: miter; stroke-miterlimit: 10; fill: none; fill-rule: nonzero; opacity: 1;" transform="translate(1.4065934065934016 1.4065934065934016) scale(2.81 2.81)" >
	<path d="M 56.933 66.122 c -7.15 0 -14.301 -2.722 -19.745 -8.166 c -10.888 -10.888 -10.888 -28.604 0 -39.491 c 10.888 -10.889 28.605 -10.887 39.49 0 c 10.887 10.887 10.887 28.603 0 39.491 C 71.235 63.4 64.084 66.122 56.933 66.122 z M 56.933 16.166 c -5.647 0 -11.295 2.15 -15.595 6.449 c -8.599 8.599 -8.599 22.591 0 31.191 c 8.6 8.598 22.591 8.596 31.19 0 c 8.598 -8.6 8.599 -22.592 0 -31.191 C 68.229 18.316 62.582 16.166 56.933 16.166 z" style="stroke: none; stroke-width: 1; stroke-dasharray: none; stroke-linecap: butt; stroke-linejoin: miter; stroke-miterlimit: 10; fill: rgb(4,170,142); fill-rule: nonzero; opacity: 1;" transform=" matrix(1 0 0 1 0 0) " stroke-linecap="round" />
	<path d="M 13.792 90 c -2.215 0 -4.431 -0.844 -6.117 -2.53 c -1.634 -1.634 -2.534 -3.807 -2.534 -6.117 c 0 -2.311 0.9 -4.484 2.534 -6.117 L 33.611 49.3 c 1.146 -1.147 3.005 -1.145 4.151 0 c 1.146 1.145 1.146 3.005 0 4.15 L 11.825 79.386 c -0.525 0.525 -0.814 1.224 -0.814 1.967 c 0 0.743 0.289 1.442 0.815 1.967 c 1.084 1.083 2.849 1.083 3.933 0 l 25.898 -25.899 c 1.146 -1.146 3.005 -1.146 4.151 0 c 1.146 1.145 1.146 3.004 0 4.15 L 19.91 87.47 C 18.223 89.156 16.007 90 13.792 90 z" style="stroke: none; stroke-width: 1; stroke-dasharray: none; stroke-linecap: butt; stroke-linejoin: miter; stroke-miterlimit: 10; fill: rgb(4,170,142); fill-rule: nonzero; opacity: 1;" transform=" matrix(1 0 0 1 0 0) " stroke-linecap="round" />
	<path d="M 64.607 29.571 c -0.559 0 -1.124 -0.16 -1.624 -0.493 c -3.154 -2.101 -7.101 -2.439 -10.557 -0.904 c -1.483 0.656 -3.215 -0.011 -3.873 -1.492 c -0.657 -1.482 0.011 -3.216 1.492 -3.874 c 5.301 -2.354 11.357 -1.839 16.192 1.384 c 1.349 0.899 1.714 2.721 0.816 4.069 C 66.487 29.111 65.556 29.571 64.607 29.571 z" style="stroke: none; stroke-width: 1; stroke-dasharray: none; stroke-linecap: butt; stroke-linejoin: miter; stroke-miterlimit: 10; fill: rgb(4,170,142); fill-rule: nonzero; opacity: 1;" transform=" matrix(1 0 0 1 0 0) " stroke-linecap="round" />
	<path d="M 56.882 55.059 c -2.332 0 -4.663 -0.482 -6.837 -1.445 c -1.481 -0.657 -2.15 -2.391 -1.492 -3.873 c 0.656 -1.481 2.39 -2.152 3.873 -1.492 c 2.832 1.255 6.079 1.255 8.911 0 c 4.274 -1.897 6.883 -6.3 6.492 -10.957 c -0.136 -1.615 1.063 -3.034 2.679 -3.17 c 1.608 -0.137 3.034 1.063 3.17 2.679 c 0.601 7.146 -3.402 13.903 -9.96 16.814 C 61.546 54.578 59.214 55.059 56.882 55.059 z" style="stroke: none; stroke-width: 1; stroke-dasharray: none; stroke-linecap: butt; stroke-linejoin: miter; stroke-miterlimit: 10; fill: rgb(4,170,142); fill-rule: nonzero; opacity: 1;" transform=" matrix(1 0 0 1 0 0) " stroke-linecap="round" />
	<path d="M 14.277 59.391 H 8.076 c -1.621 0 -2.935 -1.314 -2.935 -2.935 s 1.314 -2.935 2.935 -2.935 h 6.201 c 1.621 0 2.935 1.314 2.935 2.935 S 15.898 59.391 14.277 59.391 z" style="stroke: none; stroke-width: 1; stroke-dasharray: none; stroke-linecap: butt; stroke-linejoin: miter; stroke-miterlimit: 10; fill: rgb(160,160,160); fill-rule: nonzero; opacity: 1;" transform=" matrix(1 0 0 1 0 0) " stroke-linecap="round" />
	<path d="M 21.291 41.551 H 8.076 c -1.621 0 -2.935 -1.314 -2.935 -2.935 s 1.314 -2.935 2.935 -2.935 h 13.215 c 1.621 0 2.935 1.314 2.935 2.935 S 22.912 41.551 21.291 41.551 z" style="stroke: none; stroke-width: 1; stroke-dasharray: none; stroke-linecap: butt; stroke-linejoin: miter; stroke-miterlimit: 10; fill: rgb(160,160,160); fill-rule: nonzero; opacity: 1;" transform=" matrix(1 0 0 1 0 0) " stroke-linecap="round" />
	<path d="M 23.546 23.71 H 8.076 c -1.621 0 -2.935 -1.314 -2.935 -2.935 s 1.314 -2.935 2.935 -2.935 h 15.47 c 1.621 0 2.935 1.314 2.935 2.935 S 25.167 23.71 23.546 23.71 z" style="stroke: none; stroke-width: 1; stroke-dasharray: none; stroke-linecap: butt; stroke-linejoin: miter; stroke-miterlimit: 10; fill: rgb(160,160,160); fill-rule: nonzero; opacity: 1;" transform=" matrix(1 0 0 1 0 0) " stroke-linecap="round" />
	<path d="M 81.924 5.87 H 8.076 c -1.621 0 -2.935 -1.314 -2.935 -2.935 S 6.455 0 8.076 0 h 73.848 c 1.621 0 2.935 1.314 2.935 2.935 S 83.545 5.87 81.924 5.87 z" style="stroke: none; stroke-width: 1; stroke-dasharray: none; stroke-linecap: butt; stroke-linejoin: miter; stroke-miterlimit: 10; fill: rgb(160,160,160); fill-rule: nonzero; opacity: 1;" transform=" matrix(1 0 0 1 0 0) " stroke-linecap="round" />
</g>
</svg>