<svg xmlns="http://www.w3.org/2000/svg" xmlns:xlink="http://www.w3.org/1999/xlink" width="500" zoomAndPan="magnify" viewBox="0 0 375 374.999991" height="500" preserveAspectRatio="xMidYMid meet" version="1.0"><defs><clipPath id="2af9d0d980"><path d="M 103.902344 126.980469 L 280.78125 126.980469 L 280.78125 303.863281 L 103.902344 303.863281 Z M 103.902344 126.980469 " clip-rule="nonzero"/></clipPath><clipPath id="b424d6bb32"><path d="M 192.339844 126.980469 C 143.496094 126.980469 103.902344 166.578125 103.902344 215.421875 C 103.902344 264.265625 143.496094 303.863281 192.339844 303.863281 C 241.1875 303.863281 280.78125 264.265625 280.78125 215.421875 C 280.78125 166.578125 241.1875 126.980469 192.339844 126.980469 Z M 192.339844 126.980469 " clip-rule="nonzero"/></clipPath><clipPath id="d33e71ac83"><path d="M 195 73 L 281 73 L 281 114 L 195 114 Z M 195 73 " clip-rule="nonzero"/></clipPath><clipPath id="bd201f6ac6"><path d="M 208.59375 56.996094 L 280.898438 73.878906 L 267.9375 129.386719 L 195.632812 112.503906 Z M 208.59375 56.996094 " clip-rule="nonzero"/></clipPath><clipPath id="1c8cebeb9d"><path d="M 208.59375 56.996094 L 280.898438 73.878906 L 267.9375 129.386719 L 195.632812 112.503906 Z M 208.59375 56.996094 " clip-rule="nonzero"/></clipPath><clipPath id="4ac4cce8fd"><path d="M 208.59375 56.996094 L 280.898438 73.878906 L 267.9375 129.386719 L 195.632812 112.503906 Z M 208.59375 56.996094 " clip-rule="nonzero"/></clipPath><clipPath id="a86b125238"><path d="M 208.585938 57.027344 L 280.894531 73.910156 L 267.9375 129.402344 L 195.628906 112.519531 Z M 208.585938 57.027344 " clip-rule="nonzero"/></clipPath><clipPath id="c939613f81"><path d="M 208.585938 57.027344 L 280.890625 73.910156 L 267.945312 129.355469 L 195.640625 112.472656 Z M 208.585938 57.027344 " clip-rule="nonzero"/></clipPath><clipPath id="611b142bb3"><path d="M 96 82 L 199 82 L 199 123 L 96 123 Z M 96 82 " clip-rule="nonzero"/></clipPath><clipPath id="e90dc1833e"><path d="M 94.222656 107.136719 L 136.300781 57.265625 L 203.9375 114.339844 L 161.859375 164.207031 Z M 94.222656 107.136719 " clip-rule="nonzero"/></clipPath><clipPath id="6066785511"><path d="M 136.527344 57 L 94.449219 106.867188 L 162.085938 163.941406 L 204.164062 114.070312 Z M 136.527344 57 " clip-rule="nonzero"/></clipPath><clipPath id="d1f6d241fb"><path d="M 136.527344 57 L 94.449219 106.867188 L 162.085938 163.941406 L 204.164062 114.070312 Z M 136.527344 57 " clip-rule="nonzero"/></clipPath><clipPath id="a370345dff"><path d="M 184.507812 139.210938 L 264.007812 139.210938 L 264.007812 291.460938 L 184.507812 291.460938 Z M 184.507812 139.210938 " clip-rule="nonzero"/></clipPath><clipPath id="5cf8d8b378"><path d="M 126 146.671875 L 223 146.671875 L 223 279 L 126 279 Z M 126 146.671875 " clip-rule="nonzero"/></clipPath><clipPath id="464c3a8b77"><path d="M 184 199.1875 L 257 199.1875 L 257 273 L 184 273 Z M 184 199.1875 " clip-rule="nonzero"/></clipPath><clipPath id="484ae48cd5"><path d="M 179.644531 199.1875 L 250 199.1875 L 250 276 L 179.644531 276 Z M 179.644531 199.1875 " clip-rule="nonzero"/></clipPath></defs><g clip-path="url(#2af9d0d980)"><g clip-path="url(#b424d6bb32)"><path fill="#08af0f" d="M 103.902344 126.980469 L 280.78125 126.980469 L 280.78125 303.863281 L 103.902344 303.863281 Z M 103.902344 126.980469 " fill-opacity="1" fill-rule="nonzero"/></g></g><g clip-path="url(#d33e71ac83)"><g clip-path="url(#bd201f6ac6)"><g clip-path="url(#1c8cebeb9d)"><g clip-path="url(#4ac4cce8fd)"><g clip-path="url(#a86b125238)"><g clip-path="url(#c939613f81)"><path fill="#08af0f" d="M 271.640625 92.628906 C 258.625 106.988281 239.582031 107.765625 237.710938 107.8125 C 223.191406 108.1875 212.785156 102.140625 207.945312 98.703125 C 206.121094 100.785156 204.464844 103.066406 202.996094 105.519531 C 201.503906 108.003906 200.230469 110.617188 199.222656 113.308594 L 195.773438 111.914062 C 201.855469 97.855469 214.714844 86.214844 230.175781 84.03125 C 234.507812 83.363281 238.875 83.453125 243.207031 83.859375 C 247.867188 84.257812 252.484375 85.308594 256.847656 86.96875 C 256.859375 86.972656 256.867188 86.976562 256.878906 86.980469 C 252.546875 85.328125 246.773438 83.171875 242.03125 82.746094 C 237.648438 82.320312 233.207031 82.199219 228.742188 82.808594 C 221.121094 83.757812 214.195312 87.054688 208.238281 91.71875 C 209.007812 89.953125 209.90625 88.246094 210.941406 86.621094 C 215.246094 79.851562 219.988281 77.082031 222.585938 75.886719 C 235.773438 69.796875 255.367188 75.617188 257.089844 76.148438 C 259.328125 76.835938 262.167969 77.878906 266.203125 77.71875 C 274.398438 77.390625 280.230469 73.753906 280.230469 73.753906 C 281.394531 74.859375 278.570312 84.984375 271.640625 92.628906 " fill-opacity="1" fill-rule="nonzero"/></g></g></g></g></g></g><g clip-path="url(#611b142bb3)"><g clip-path="url(#e90dc1833e)"><g clip-path="url(#6066785511)"><g clip-path="url(#d1f6d241fb)"><path fill="#08af0f" d="M 135.960938 116.019531 C 144.273438 114.933594 152.078125 112.167969 160.265625 110.570312 C 171.148438 108.445312 182.789062 109.949219 187.519531 110.742188 C 189.523438 113.125 191.367188 115.640625 193.078125 118.199219 C 193.902344 119.476562 194.738281 120.839844 195.394531 122.175781 L 198.898438 120.316406 C 198.058594 118.789062 197.136719 117.441406 196.148438 116.050781 C 191.289062 109.398438 185.539062 103.320312 178.582031 98.835938 C 167.433594 91.699219 153.054688 90.839844 140.410156 94.738281 C 137.277344 95.6875 134.203125 96.875 131.292969 98.394531 C 134.246094 96.816406 137.355469 95.328125 140.660156 94.15625 C 154.308594 89.316406 168.671875 89.566406 179.855469 97.144531 C 180.660156 97.691406 181.535156 98.128906 182.351562 98.652344 C 177.625 92.539062 171 86.117188 163.617188 84.230469 C 139.5 78.0625 118.054688 95.296875 96.710938 104.183594 C 105.339844 116.023438 122.308594 117.582031 135.960938 116.019531 " fill-opacity="1" fill-rule="nonzero"/></g></g></g></g><g clip-path="url(#a370345dff)"><path fill="#ffffff" d="M 184.554688 288.503906 L 184.554688 142.34375 C 184.550781 141.917969 184.628906 141.507812 184.789062 141.113281 C 184.953125 140.71875 185.183594 140.367188 185.484375 140.066406 C 185.785156 139.765625 186.132812 139.53125 186.527344 139.371094 C 186.925781 139.207031 187.335938 139.128906 187.761719 139.132812 C 189.007812 139.132812 190.257812 139.164062 191.503906 139.226562 C 192.75 139.289062 193.996094 139.378906 195.238281 139.503906 C 196.480469 139.625 197.71875 139.777344 198.953125 139.960938 C 200.1875 140.144531 201.417969 140.359375 202.640625 140.601562 C 203.863281 140.847656 205.082031 141.121094 206.292969 141.425781 C 207.503906 141.726562 208.707031 142.0625 209.898438 142.425781 C 211.09375 142.785156 212.28125 143.179688 213.453125 143.597656 C 214.628906 144.019531 215.792969 144.46875 216.945312 144.949219 C 218.101562 145.425781 219.242188 145.929688 220.367188 146.464844 C 221.496094 147 222.613281 147.5625 223.710938 148.148438 C 224.8125 148.738281 225.898438 149.351562 226.96875 149.996094 C 228.039062 150.636719 229.09375 151.304688 230.132812 152 C 231.167969 152.691406 232.1875 153.410156 233.191406 154.15625 C 234.195312 154.898438 235.175781 155.667969 236.140625 156.457031 C 237.105469 157.25 238.050781 158.066406 238.976562 158.902344 C 239.902344 159.742188 240.804688 160.601562 241.6875 161.484375 C 242.570312 162.367188 243.429688 163.273438 244.269531 164.199219 C 245.105469 165.121094 245.921875 166.066406 246.710938 167.03125 C 247.503906 167.996094 248.273438 168.980469 249.015625 169.984375 C 249.757812 170.988281 250.476562 172.007812 251.171875 173.046875 C 251.863281 174.082031 252.53125 175.136719 253.171875 176.207031 C 253.8125 177.277344 254.429688 178.363281 255.015625 179.464844 C 255.605469 180.566406 256.167969 181.679688 256.699219 182.808594 C 257.234375 183.9375 257.738281 185.078125 258.214844 186.230469 C 258.695312 187.386719 259.144531 188.550781 259.5625 189.722656 C 259.984375 190.898438 260.375 192.085938 260.738281 193.277344 C 261.101562 194.472656 261.433594 195.675781 261.734375 196.886719 C 262.039062 198.097656 262.3125 199.316406 262.554688 200.539062 C 262.800781 201.765625 263.011719 202.992188 263.195312 204.226562 C 263.378906 205.460938 263.53125 206.699219 263.652344 207.941406 C 263.777344 209.183594 263.867188 210.429688 263.929688 211.675781 C 263.992188 212.921875 264.019531 214.171875 264.019531 215.417969 C 264.019531 216.667969 263.992188 217.914062 263.929688 219.160156 C 263.867188 220.40625 263.777344 221.652344 263.652344 222.894531 C 263.53125 224.136719 263.378906 225.375 263.195312 226.609375 C 263.011719 227.84375 262.800781 229.074219 262.554688 230.296875 C 262.3125 231.523438 262.039062 232.738281 261.734375 233.949219 C 261.433594 235.160156 261.101562 236.363281 260.738281 237.558594 C 260.375 238.753906 259.984375 239.9375 259.5625 241.113281 C 259.144531 242.289062 258.695312 243.453125 258.214844 244.605469 C 257.738281 245.757812 257.234375 246.898438 256.699219 248.027344 C 256.167969 249.15625 255.605469 250.273438 255.015625 251.371094 C 254.429688 252.472656 253.8125 253.558594 253.171875 254.628906 C 252.53125 255.699219 251.863281 256.753906 251.171875 257.792969 C 250.476562 258.832031 249.757812 259.851562 249.015625 260.855469 C 248.273438 261.855469 247.503906 262.839844 246.710938 263.804688 C 245.921875 264.769531 245.105469 265.714844 244.269531 266.640625 C 243.429688 267.566406 242.570312 268.46875 241.6875 269.351562 C 240.804688 270.234375 239.902344 271.09375 238.976562 271.933594 C 238.050781 272.773438 237.105469 273.585938 236.140625 274.378906 C 235.175781 275.171875 234.195312 275.9375 233.191406 276.683594 C 232.1875 277.425781 231.167969 278.144531 230.132812 278.839844 C 229.09375 279.53125 228.039062 280.199219 226.96875 280.84375 C 225.898438 281.484375 224.8125 282.101562 223.710938 282.6875 C 222.613281 283.277344 221.496094 283.839844 220.367188 284.371094 C 219.242188 284.90625 218.101562 285.414062 216.945312 285.890625 C 215.792969 286.367188 214.628906 286.816406 213.453125 287.238281 C 212.28125 287.660156 211.09375 288.050781 209.898438 288.414062 C 208.707031 288.777344 207.503906 289.109375 206.292969 289.414062 C 205.082031 289.71875 203.863281 289.992188 202.640625 290.234375 C 201.417969 290.476562 200.1875 290.691406 198.953125 290.875 C 197.71875 291.058594 196.480469 291.210938 195.238281 291.335938 C 193.996094 291.457031 192.75 291.550781 191.503906 291.613281 C 190.257812 291.671875 189.007812 291.703125 187.761719 291.703125 C 187.335938 291.707031 186.925781 291.628906 186.53125 291.464844 C 186.140625 291.304688 185.792969 291.074219 185.492188 290.773438 C 185.191406 290.472656 184.957031 290.125 184.796875 289.734375 C 184.632812 289.339844 184.554688 288.929688 184.554688 288.503906 Z M 184.554688 288.503906 " fill-opacity="1" fill-rule="nonzero"/></g><g clip-path="url(#5cf8d8b378)"><path fill="#3fc01f" d="M 213.46875 160.898438 C 204.917969 153.296875 194.886719 149.128906 183.800781 147.304688 C 181 146.832031 176.964844 146.726562 172.421875 147.015625 C 153.257812 148.28125 135.390625 157.046875 132.484375 182.757812 C 130.796875 197.800781 140.617188 216.675781 143.464844 231.246094 C 148.375 256.242188 124.644531 248.085938 127.046875 265.347656 C 129.425781 282.425781 164.582031 284.117188 175.351562 265.613281 C 182.242188 253.8125 174.71875 242.675781 171.65625 231.695312 C 167.039062 212.898438 180.210938 224.832031 189.632812 223.328125 C 201.960938 221.375 207.820312 209.863281 208.109375 198.621094 C 208.058594 197.351562 208.664062 196.824219 209.71875 196.5625 C 225.53125 189.59375 227.273438 171.300781 213.46875 160.898438 Z M 176.304688 187.957031 C 175.167969 189.617188 172.503906 190.464844 170.65625 190.515625 C 167.277344 189.144531 175.035156 185.84375 176.304688 187.957031 Z M 176.304688 187.957031 " fill-opacity="1" fill-rule="nonzero"/><path fill="#ffffff" d="M 213.46875 160.898438 C 204.917969 153.296875 194.886719 149.128906 183.800781 147.304688 C 181 146.832031 176.964844 146.726562 172.421875 147.015625 C 153.257812 148.28125 135.390625 157.046875 132.484375 182.757812 C 130.796875 197.800781 140.617188 216.675781 143.464844 231.246094 C 148.375 256.242188 124.644531 248.085938 127.046875 265.347656 C 129.425781 282.425781 164.582031 284.117188 175.351562 265.613281 C 182.242188 253.8125 174.71875 242.675781 171.65625 231.695312 C 167.039062 212.898438 180.210938 224.832031 189.632812 223.328125 C 201.960938 221.375 207.820312 209.863281 208.109375 198.621094 C 208.058594 197.351562 208.664062 196.824219 209.71875 196.5625 C 225.53125 189.59375 227.273438 171.300781 213.46875 160.898438 Z M 209.957031 191.996094 C 203.570312 197.007812 206.710938 177.398438 191.664062 179.5625 C 184.460938 180.617188 183.773438 187.269531 179.445312 184.710938 C 170.363281 179.378906 159.910156 191.230469 168.570312 196.929688 C 175.539062 201.523438 183.007812 189.777344 191.085938 186.292969 C 203.148438 181.121094 205.363281 199.492188 201.960938 206.722656 C 195.863281 219.683594 189.34375 221.691406 176.25 217.386719 C 166.273438 214.089844 164.292969 225.964844 167.722656 233.726562 C 169.914062 242.542969 177.121094 251.332031 172.949219 260.546875 C 170.179688 268.515625 163.050781 271.738281 155.316406 273.1875 C 148.507812 274.480469 132.011719 272.421875 134.359375 262.839844 C 136.472656 254.183594 144.996094 254.816406 147.609375 247.953125 C 157.140625 222.929688 125.808594 188.246094 152.070312 163.960938 C 160.015625 156.625 172.925781 152.980469 183.378906 152.824219 C 203.070312 152.425781 234.636719 175.023438 209.957031 191.996094 Z M 176.328125 187.957031 C 175.195312 189.617188 172.527344 190.464844 170.679688 190.515625 C 167.277344 189.144531 175.035156 185.84375 176.328125 187.957031 Z M 176.328125 187.957031 " fill-opacity="1" fill-rule="nonzero"/></g><g clip-path="url(#464c3a8b77)"><path fill="#3fc01f" d="M 184.101562 237.082031 C 184.101562 242.804688 188.785156 247.566406 194.507812 247.492188 L 207.429688 247.320312 L 206.945312 254.324219 C 205.316406 277.851562 229.933594 278.359375 230.261719 253.359375 L 230.347656 247.011719 L 238.066406 246.910156 C 264.007812 246.5625 260.925781 222.074219 239.027344 223.589844 L 230.648438 224.175781 L 230.839844 209.804688 C 230.914062 204.082031 226.15625 199.394531 220.429688 199.394531 C 214.707031 199.394531 210.417969 204.09375 210.019531 209.804688 L 208.917969 225.675781 L 194.496094 226.671875 C 188.785156 227.070312 184.089844 231.359375 184.089844 237.082031 Z M 197.128906 231.636719 C 198.480469 231.480469 203.828125 231.027344 205.207031 231.035156 C 210.007812 231.0625 211.816406 227.640625 202.632812 228.289062 C 201.132812 228.390625 196.246094 228.675781 195.207031 229.449219 C 194.566406 229.921875 195.167969 231.859375 197.128906 231.636719 Z M 213.804688 218.148438 C 214.007812 216.804688 214.953125 211.519531 215.316406 210.191406 C 216.585938 205.5625 213.753906 202.933594 211.992188 211.96875 C 211.707031 213.445312 210.71875 218.242188 211.191406 219.441406 C 211.484375 220.1875 213.511719 220.105469 213.800781 218.148438 Z M 213.804688 218.148438 " fill-opacity="1" fill-rule="evenodd"/></g><g clip-path="url(#484ae48cd5)"><path fill="#ffffff" d="M 204.683594 223.742188 L 205.578125 210.820312 C 205.941406 205.605469 209.085938 201.027344 213.695312 199.199219 C 210.320312 201.445312 208.109375 205.328125 207.808594 209.648438 L 206.847656 223.589844 Z M 249.894531 246.847656 C 245.773438 249.378906 240.597656 250.238281 235.859375 250.300781 L 232.523438 250.347656 L 232.542969 249.207031 L 238.097656 249.128906 C 242.011719 249.078125 246.222656 248.480469 249.898438 246.847656 Z M 222.050781 273.425781 C 219.851562 274.867188 217.273438 275.640625 214.527344 275.378906 C 210.679688 275.023438 207.5 272.726562 205.445312 269.519531 C 202.789062 265.378906 202.167969 260.148438 202.496094 255.339844 L 202.8125 250.734375 L 192.300781 250.875 C 185.324219 250.964844 179.644531 245.191406 179.644531 238.246094 C 179.644531 232.882812 183.007812 228.589844 187.636719 226.671875 C 184.199219 228.898438 181.878906 232.617188 181.878906 237.078125 C 181.878906 244.019531 187.554688 249.792969 194.53125 249.703125 L 205.046875 249.5625 L 204.730469 254.167969 C 204.394531 258.980469 205.023438 264.207031 207.675781 268.347656 C 209.730469 271.550781 212.90625 273.84375 216.761719 274.210938 C 218.625 274.382812 220.40625 274.082031 222.050781 273.425781 Z M 222.050781 273.425781 " fill-opacity="1" fill-rule="evenodd"/></g></svg>